<svg width="836" height="792" viewBox="0 0 836 792" fill="none" xmlns="http://www.w3.org/2000/svg">
<rect width="836" height="792" fill="white"/>
<path fill-rule="evenodd" clip-rule="evenodd" d="M405.5 221C405.5 214.37 408.134 208.011 412.822 203.322C417.511 198.634 423.87 196 430.5 196C470.056 196 508.724 207.73 541.614 229.706C574.504 251.682 600.138 282.918 615.276 319.463C630.413 356.009 634.374 396.222 626.657 435.018C618.94 473.814 599.892 509.451 571.921 537.421C543.951 565.392 508.314 584.44 469.518 592.157C430.722 599.874 390.509 595.913 353.963 580.776C317.418 565.638 286.182 540.004 264.206 507.114C242.23 474.224 230.5 435.556 230.5 396C230.5 389.37 233.134 383.011 237.822 378.322C242.511 373.634 248.87 371 255.5 371C262.13 371 268.489 373.634 273.178 378.322C277.866 383.011 280.5 389.37 280.5 396C280.5 425.667 289.297 454.668 305.78 479.336C322.262 504.003 345.689 523.229 373.097 534.582C400.506 545.935 430.666 548.906 459.764 543.118C488.861 537.33 515.588 523.044 536.566 502.066C557.544 481.088 571.83 454.361 577.618 425.264C583.406 396.166 580.435 366.006 569.082 338.597C557.729 311.189 538.503 287.762 513.836 271.28C489.168 254.797 460.167 246 430.5 246C423.87 246 417.511 243.366 412.822 238.678C408.134 233.989 405.5 227.63 405.5 221Z" fill="#01B763"/>
<path fill-rule="evenodd" clip-rule="evenodd" d="M327.85 432.175C330.811 426.247 331.297 419.386 329.202 413.1C327.106 406.813 322.601 401.616 316.675 398.65L266.675 373.65C263.736 372.152 260.528 371.251 257.239 370.999C253.949 370.746 250.642 371.147 247.508 372.179C244.374 373.211 241.475 374.853 238.979 377.011C236.482 379.168 234.438 381.799 232.963 384.75C231.488 387.701 230.612 390.916 230.385 394.207C230.159 397.499 230.586 400.803 231.642 403.929C232.698 407.054 234.363 409.94 236.54 412.42C238.716 414.899 241.363 416.923 244.325 418.375L294.325 443.375C300.257 446.334 307.12 446.816 313.407 444.716C319.693 442.615 324.889 438.105 327.85 432.175Z" fill="#01B763"/>
<path d="M380.5 233.5C380.5 240.13 377.866 246.489 373.178 251.178C368.489 255.866 362.13 258.5 355.5 258.5C348.87 258.5 342.511 255.866 337.822 251.178C333.134 246.489 330.5 240.13 330.5 233.5C330.5 226.87 333.134 220.511 337.822 215.822C342.511 211.134 348.87 208.5 355.5 208.5C362.13 208.5 368.489 211.134 373.178 215.822C377.866 220.511 380.5 226.87 380.5 233.5ZM318 271C318 277.63 315.366 283.989 310.678 288.678C305.989 293.366 299.63 296 293 296C286.37 296 280.011 293.366 275.322 288.678C270.634 283.989 268 277.63 268 271C268 264.37 270.634 258.011 275.322 253.322C280.011 248.634 286.37 246 293 246C299.63 246 305.989 248.634 310.678 253.322C315.366 258.011 318 264.37 318 271ZM280.5 333.5C280.5 340.13 277.866 346.489 273.178 351.178C268.489 355.866 262.13 358.5 255.5 358.5C248.87 358.5 242.511 355.866 237.822 351.178C233.134 346.489 230.5 340.13 230.5 333.5C230.5 326.87 233.134 320.511 237.822 315.822C242.511 311.134 248.87 308.5 255.5 308.5C262.13 308.5 268.489 311.134 273.178 315.822C277.866 320.511 280.5 326.87 280.5 333.5Z" fill="#01B763"/>
<path fill-rule="evenodd" clip-rule="evenodd" d="M273.175 378.325C277.862 383.013 280.495 389.371 280.495 396C280.495 402.629 277.862 408.987 273.175 413.675L235.675 451.175C230.96 455.729 224.645 458.249 218.09 458.192C211.535 458.135 205.265 455.506 200.63 450.87C195.995 446.235 193.366 439.965 193.309 433.41C193.252 426.855 195.771 420.54 200.325 415.825L237.825 378.325C242.514 373.638 248.871 371.005 255.5 371.005C262.13 371.005 268.487 373.638 273.175 378.325ZM430.5 296C437.131 296 443.49 298.634 448.178 303.322C452.867 308.011 455.5 314.37 455.5 321V396C455.5 402.63 452.867 408.989 448.178 413.678C443.49 418.366 437.131 421 430.5 421C423.87 421 417.511 418.366 412.823 413.678C408.134 408.989 405.5 402.63 405.5 396V321C405.5 314.37 408.134 308.011 412.823 303.322C417.511 298.634 423.87 296 430.5 296Z" fill="#01B763"/>
<path fill-rule="evenodd" clip-rule="evenodd" d="M530.5 396C530.5 402.63 527.866 408.989 523.178 413.678C518.489 418.366 512.13 421 505.5 421H430.5C423.87 421 417.511 418.366 412.822 413.678C408.134 408.989 405.5 402.63 405.5 396C405.5 389.37 408.134 383.011 412.822 378.322C417.511 373.634 423.87 371 430.5 371H505.5C512.13 371 518.489 373.634 523.178 378.322C527.866 383.011 530.5 389.37 530.5 396Z" fill="#01B763"/>
</svg>
